<?xml version="1.0" encoding="UTF-8"?>
<svg width="157px" height="70px" viewBox="0 0 157 70" version="1.1" xmlns="http://www.w3.org/2000/svg" xmlns:xlink="http://www.w3.org/1999/xlink">
    <title>logo</title>
    <g id="Page-1" stroke="none" stroke-width="1" fill="none" fill-rule="evenodd">
        <g id="Startseite:-Desktop" transform="translate(-100.000000, -30.000000)">
            <g id="logo" transform="translate(100.000000, 30.000000)">
                <path d="M157,38.9423779 C154.516482,0.000555890855 114.475567,3.55271368e-15 114.475567,3.55271368e-15 L42.5244334,3.55271368e-15 C42.5244334,3.55271368e-15 2.48351819,0.000555890855 0,38.9423779 L0.537246352,38.9423779 C5.9019558,4.87182745 42.5244334,4.86571265 42.5244334,4.86571265 L114.475567,4.86571265 C114.475567,4.86571265 151.098044,4.87182745 156.462754,38.9423779 L157,38.9423779" id="Fill-1" fill="#009CB5"></path>
                <path d="M33.1813317,22.8148725 L29.6055972,37.011769 L26.0066005,22.8148725 L24.8074888,22.8148725 L21.1863376,36.9206029 L17.6106031,22.8148725 L16.3428125,22.8148725 L20.5754276,38.8289762 L21.7518309,38.8289762 L25.3729821,24.7910645 L28.9714249,38.8289762 L30.1937989,38.8289762 L34.3809972,22.8148725 L33.1813317,22.8148725 Z M36.9381791,38.7150186 L38.1378447,38.7150186 L38.1378447,22.8143166 L36.9381791,22.8143166 L36.9381791,38.7150186 Z M51.5125095,22.8148725 L51.5125095,32.5596391 C51.5125095,34.3312633 51.5352179,34.8760363 51.6033429,36.7388266 L43.2295,22.8148725 L41.9844178,22.8148725 L41.9844178,38.7150186 L43.1165121,38.7150186 L43.1165121,28.9702519 C43.1165121,27.1758362 43.0938038,26.7216734 43.0256787,24.7682729 L51.4676467,38.7150186 L52.6446039,38.7150186 L52.6446039,22.8148725 L51.5125095,22.8148725 Z M56.5138854,22.8148725 L56.5138854,38.7150186 L61.5612318,38.7150186 C64.1184136,38.7150186 66.4950364,37.306947 66.4950364,34.4218735 L66.4950364,27.1080175 C66.4950364,24.222944 64.1184136,22.8148725 61.5612318,22.8148725 L56.5138854,22.8148725 Z M65.3180792,34.4218735 C65.3180792,36.6710079 63.5302119,37.7383184 61.5612318,37.7383184 L57.7135509,37.7383184 L57.7135509,23.7915727 L61.5612318,23.7915727 C63.5302119,23.7915727 65.3180792,24.9044662 65.3180792,27.1080175 L65.3180792,34.4218735 Z M79.2814996,34.8760363 C79.2814996,37.7611099 76.8145973,38.9423779 74.2574154,38.9423779 C71.6996797,38.9423779 69.3009024,37.5337505 69.3009024,34.6492329 L69.3009024,33.0365935 L70.4324429,33.0365935 L70.4324429,34.6492329 C70.4324429,36.8978114 72.2884352,37.9656777 74.2801238,37.9656777 C76.2712584,37.9656777 78.081834,37.0795877 78.081834,34.9216194 L78.081834,34.7170516 C78.081834,30.5606556 69.5268782,31.7641593 69.5268782,26.6532988 L69.5268782,26.4264953 C69.5268782,23.8821829 71.7450964,22.5875131 74.2801238,22.5875131 C76.8373056,22.5875131 79.0555238,23.9955846 79.0555238,26.8806582 L79.0555238,28.4932975 L77.9234294,28.4932975 L77.9234294,26.8806582 C77.9234294,24.6771068 76.2712584,23.5642133 74.2801238,23.5642133 C72.2884352,23.5642133 70.7038354,24.6320797 70.7038354,26.4264953 L70.7038354,26.6310632 C70.7038354,30.8102506 79.2814996,29.5383724 79.2814996,34.6492329 L79.2814996,34.8760363 Z M92.0458083,33.0365935 L92.0458083,34.6492329 C92.0458083,37.5337505 89.6016143,38.9423779 87.0665869,38.9423779 C84.5094051,38.9423779 82.0652111,37.5337505 82.0652111,34.6492329 L82.0652111,26.8806582 C82.0652111,23.9955846 84.5094051,22.5875131 87.0665869,22.5875131 C89.6016143,22.5875131 92.0458083,23.9955846 92.0458083,26.8806582 L92.0458083,28.4932975 L90.9142678,28.4932975 L90.9142678,26.8806582 C90.9142678,24.6771068 89.0582755,23.5642133 87.0665869,23.5642133 C85.0748984,23.5642133 83.2643228,24.6771068 83.2643228,26.8806582 L83.2643228,34.6492329 C83.2643228,36.8978114 85.0748984,37.9656777 87.0665869,37.9656777 C89.0582755,37.9656777 90.9142678,36.8978114 90.9142678,34.6492329 L90.9142678,33.0365935 L92.0458083,33.0365935 Z M104.379766,22.8148725 L104.379766,30.1743115 L96.549262,30.1743115 L96.549262,22.8148725 L95.3495964,22.8148725 L95.3495964,38.7150186 L96.549262,38.7150186 L96.549262,31.1282202 L104.379766,31.1282202 L104.379766,38.7150186 L105.556723,38.7150186 L105.556723,22.8148725 L104.379766,22.8148725 Z M109.064333,26.8806582 C109.064333,23.9955846 111.509081,22.5875131 114.066262,22.5875131 C116.60129,22.5875131 119.045484,23.9955846 119.045484,26.8806582 L119.045484,34.6492329 C119.045484,37.5337505 116.60129,38.9423779 114.066262,38.9423779 C111.509081,38.9423779 109.064333,37.5337505 109.064333,34.6492329 L109.064333,26.8806582 Z M117.868527,26.8806582 C117.868527,24.6771068 116.057951,23.5642133 114.066262,23.5642133 C112.074574,23.5642133 110.263998,24.6771068 110.263998,26.8806582 L110.263998,34.6492329 C110.263998,36.8527842 112.074574,37.9656777 114.066262,37.9656777 C116.057951,37.9656777 117.868527,36.8527842 117.868527,34.6492329 L117.868527,26.8806582 Z M129.886229,22.8148725 L120.810643,22.8148725 L120.810643,23.7915727 L124.838883,23.7915727 L124.838883,38.7150186 L126.01584,38.7150186 L126.01584,23.7915727 L129.886229,23.7915727 L129.886229,22.8148725 Z M140.228498,22.8148725 L131.152912,22.8148725 L131.152912,23.7915727 L135.181706,23.7915727 L135.181706,38.7150186 L136.358663,38.7150186 L136.358663,23.7915727 L140.228498,23.7915727 L140.228498,22.8148725 L140.228498,22.8148725 Z" id="Fill-2" fill="#575656"></path>
                <path d="M18.1716655,43.4156317 L18.1716655,69.6258855 L28.0952149,69.6258855 C33.9523079,69.6258855 37.4593634,66.2182745 37.4593634,61.6505194 L37.4593634,51.3909977 C37.4593634,46.8226867 33.9523079,43.4156317 28.0952149,43.4156317 L18.1716655,43.4156317 Z M31.5274991,61.6505194 C31.5274991,63.9719196 30.1472744,64.9452845 28.0952149,64.9452845 L24.0664211,64.9452845 L24.0664211,48.0956768 L28.0952149,48.0956768 C30.1472744,48.0956768 31.5274991,49.4064674 31.5274991,51.3909977 L31.5274991,61.6505194 Z M58.7609044,48.0956768 L58.7609044,43.4156317 L41.786689,43.4156317 L41.786689,69.6258855 L58.7609044,69.6258855 L58.7609044,64.9452845 L47.6808907,64.9452845 L47.6808907,58.6926241 L56.6717361,58.6926241 L56.6717361,53.9747784 L47.6808907,53.9747784 L47.6808907,48.0956768 L58.7609044,48.0956768 Z M80.2119881,62.3993043 C80.2119881,66.9670595 76.2574119,70 70.4374277,70 C64.5803347,70 60.9242902,66.592945 60.9242902,62.0246339 L60.9242902,60.2652394 L66.5205141,60.2652394 L66.5205141,62.0246339 C66.5205141,64.3460341 68.385922,65.3199549 70.5869705,65.3199549 C72.7880189,65.3199549 74.3172325,64.3838347 74.3172325,62.6989295 L74.3172325,62.4743496 C74.3172325,58.168419 61.2975933,59.4786538 61.2975933,50.6422128 L61.2975933,50.2675423 C61.2975933,45.8493218 64.7298775,43.0409612 70.5869705,43.0409612 C76.4440634,43.0409612 79.838685,46.4485722 79.838685,51.0163273 L79.838685,52.7762778 L74.243015,52.7762778 L74.243015,51.0163273 C74.243015,49.031797 72.7880189,47.7215622 70.5869705,47.7215622 C68.385922,47.7215622 67.2294577,48.6949271 67.2294577,50.2675423 L67.2294577,50.4921222 C67.2294577,54.9481433 80.2119881,53.1881929 80.2119881,62.0246339 L80.2119881,62.3993043 Z M84.4639884,69.6258855 L90.358744,69.6258855 L90.358744,43.4156317 L84.4639884,43.4156317 L84.4639884,69.6258855 Z M114.271745,52.7762778 L114.271745,51.0163273 C114.271745,46.4485722 110.466712,43.0409612 104.609619,43.0409612 C98.7525259,43.0409612 94.9846012,46.4485722 94.9846012,51.0163273 L94.9846012,62.0246339 C94.9846012,66.592945 98.7525259,70 104.609619,70 C110.466712,70 114.271745,66.592945 114.271745,62.0246339 L114.271745,55.734173 L104.908151,55.734173 L104.908151,60.414774 L108.676075,60.414774 L108.676075,62.0246339 C108.676075,64.3460341 106.810667,65.3199549 104.609619,65.3199549 C102.40857,65.3199549 100.878803,64.3460341 100.878803,62.0246339 L100.878803,51.0163273 C100.878803,49.031797 102.40857,47.7215622 104.609619,47.7215622 C106.810667,47.7215622 108.676075,49.031797 108.676075,51.0163273 L108.676075,52.7762778 L114.271745,52.7762778 Z M133.223249,43.4156317 L133.223249,52.8885677 C133.223249,54.5734729 133.29802,56.6702932 133.4099,59.1039834 L124.605707,43.4156317 L118.412973,43.4156317 L118.412973,69.6258855 L124.008643,69.6258855 L124.008643,60.1523935 C124.008643,58.4674883 123.933872,56.3334233 123.821992,53.8246879 L132.887608,69.6258855 L138.819473,69.6258855 L138.819473,43.4156317 L133.223249,43.4156317 L133.223249,43.4156317 Z" id="Fill-3" fill="#575656"></path>
            </g>
        </g>
    </g>
</svg>